<?xml version="1.0" encoding="us-ascii" standalone="no"?><svg xmlns="http://www.w3.org/2000/svg" xmlns:xlink="http://www.w3.org/1999/xlink" contentStyleType="text/css" height="1383px" preserveAspectRatio="none" style="width:929px;height:1383px;background:#FFFFFF;" version="1.1" viewBox="0 0 929 1383" width="929px" zoomAndPan="magnify"><defs/><g><!--class Auction--><g id="elem_Auction"><rect codeLine="1" fill="#F1F1F1" height="602.0938" id="Auction" rx="2.5" ry="2.5" style="stroke:#181818;stroke-width:0.5;" width="395" x="380.5" y="7"/><ellipse cx="546.25" cy="23" fill="#ADD1B2" rx="11" ry="11" style="stroke:#181818;stroke-width:1.0;"/><path d="M548.5938,18.6719 C547.6563,18.2344 547.0625,18.0938 546.1875,18.0938 C543.5625,18.0938 541.5625,20.1719 541.5625,22.8906 L541.5625,24.0156 C541.5625,26.5938 543.6719,28.4844 546.5625,28.4844 C547.7813,28.4844 548.9375,28.1875 549.6875,27.6406 C550.2656,27.2344 550.5938,26.7813 550.5938,26.3906 C550.5938,25.9375 550.2031,25.5469 549.7344,25.5469 C549.5156,25.5469 549.3125,25.625 549.125,25.8125 C548.6719,26.2969 548.6719,26.2969 548.4844,26.3906 C548.0625,26.6563 547.375,26.7813 546.6094,26.7813 C544.5625,26.7813 543.2656,25.6875 543.2656,23.9844 L543.2656,22.8906 C543.2656,21.1094 544.5156,19.7969 546.25,19.7969 C546.8281,19.7969 547.4375,19.9531 547.9063,20.2031 C548.3906,20.4844 548.5625,20.7031 548.6563,21.1094 C548.7188,21.5156 548.75,21.6406 548.8906,21.7656 C549.0313,21.9063 549.2656,22.0156 549.4844,22.0156 C549.75,22.0156 550.0156,21.875 550.1875,21.6563 C550.2969,21.5 550.3281,21.3125 550.3281,20.8906 L550.3281,19.4688 C550.3281,19.0313 550.3125,18.9063 550.2188,18.75 C550.0625,18.4844 549.7813,18.3438 549.4844,18.3438 C549.1875,18.3438 548.9844,18.4375 548.7656,18.75 L548.5938,18.6719 Z " fill="#000000"/><text fill="#000000" font-family="sans-serif" font-size="14" lengthAdjust="spacing" textLength="55" x="566.75" y="27.8467">Auction</text><line style="stroke:#181818;stroke-width:0.5;" x1="381.5" x2="774.5" y1="39" y2="39"/><rect fill="none" height="6" style="stroke:#C82930;stroke-width:1.0;" width="6" x="388.5" y="49.6484"/><text fill="#000000" font-family="sans-serif" font-size="14" lengthAdjust="spacing" textLength="168" x="400.5" y="55.9951">IERC20Burnable _token</text><rect fill="none" height="6" style="stroke:#C82930;stroke-width:1.0;" width="6" x="388.5" y="65.9453"/><text fill="#000000" font-family="sans-serif" font-size="14" lengthAdjust="spacing" textLength="171" x="400.5" y="72.292">address payable _owner</text><rect fill="none" height="6" style="stroke:#C82930;stroke-width:1.0;" width="6" x="388.5" y="82.2422"/><text fill="#000000" font-family="sans-serif" font-size="14" lengthAdjust="spacing" textLength="102" x="400.5" y="88.5889">uint256 _price</text><rect fill="none" height="6" style="stroke:#C82930;stroke-width:1.0;" width="6" x="388.5" y="98.5391"/><text fill="#000000" font-family="sans-serif" font-size="14" lengthAdjust="spacing" textLength="329" x="400.5" y="104.8857">mapping{address =&gt; uint256} _contributions</text><rect fill="none" height="6" style="stroke:#C82930;stroke-width:1.0;" width="6" x="388.5" y="114.8359"/><text fill="#000000" font-family="sans-serif" font-size="14" lengthAdjust="spacing" textLength="119" x="400.5" y="121.1826">address[] _queue</text><rect fill="none" height="6" style="stroke:#C82930;stroke-width:1.0;" width="6" x="388.5" y="131.1328"/><text fill="#000000" font-family="sans-serif" font-size="14" lengthAdjust="spacing" textLength="136" x="400.5" y="137.4795">uint256 _weiRaised</text><rect fill="none" height="6" style="stroke:#C82930;stroke-width:1.0;" width="6" x="388.5" y="147.4297"/><text fill="#000000" font-family="sans-serif" font-size="14" lengthAdjust="spacing" textLength="104" x="400.5" y="153.7764">bool _finalized</text><rect fill="none" height="6" style="stroke:#C82930;stroke-width:1.0;" width="6" x="388.5" y="163.7266"/><text fill="#000000" font-family="sans-serif" font-size="14" lengthAdjust="spacing" textLength="197" x="400.5" y="170.0732">bool _allowOwnerWithdrawl</text><rect fill="none" height="6" style="stroke:#C82930;stroke-width:1.0;" width="6" x="388.5" y="180.0234"/><text fill="#000000" font-family="sans-serif" font-size="14" lengthAdjust="spacing" textLength="193" x="400.5" y="186.3701">uint256 _tokenMaxAmount</text><rect fill="none" height="6" style="stroke:#C82930;stroke-width:1.0;" width="6" x="388.5" y="196.3203"/><text fill="#000000" font-family="sans-serif" font-size="14" lengthAdjust="spacing" textLength="190" x="400.5" y="202.667">uint256 _tokenDistributed</text><line style="stroke:#181818;stroke-width:0.5;" x1="381.5" x2="774.5" y1="209.9688" y2="209.9688"/><ellipse cx="391.5" cy="223.6172" fill="#84BE84" rx="3" ry="3" style="stroke:#038048;stroke-width:1.0;"/><text fill="#000000" font-family="sans-serif" font-size="14" lengthAdjust="spacing" textLength="331" x="400.5" y="226.9639">constructor(uint256, address, IERC20, uint256)</text><ellipse cx="391.5" cy="239.9141" fill="#84BE84" rx="3" ry="3" style="stroke:#038048;stroke-width:1.0;"/><text fill="#000000" font-family="sans-serif" font-size="14" lengthAdjust="spacing" textLength="116" x="400.5" y="243.2607">token() : IERC20</text><ellipse cx="391.5" cy="256.2109" fill="#84BE84" rx="3" ry="3" style="stroke:#038048;stroke-width:1.0;"/><text fill="#000000" font-family="sans-serif" font-size="14" lengthAdjust="spacing" textLength="122" x="400.5" y="259.5576">owner() : address</text><ellipse cx="391.5" cy="272.5078" fill="#84BE84" rx="3" ry="3" style="stroke:#038048;stroke-width:1.0;"/><text fill="#000000" font-family="sans-serif" font-size="14" lengthAdjust="spacing" textLength="114" x="400.5" y="275.8545">price() : uint256</text><ellipse cx="391.5" cy="288.8047" fill="#84BE84" rx="3" ry="3" style="stroke:#038048;stroke-width:1.0;"/><text fill="#000000" font-family="sans-serif" font-size="14" lengthAdjust="spacing" textLength="148" x="400.5" y="292.1514">weiRaised() : uint256</text><ellipse cx="391.5" cy="305.1016" fill="#84BE84" rx="3" ry="3" style="stroke:#038048;stroke-width:1.0;"/><text fill="#000000" font-family="sans-serif" font-size="14" lengthAdjust="spacing" textLength="116" x="400.5" y="308.4482">finalized() : bool</text><ellipse cx="391.5" cy="321.3984" fill="#84BE84" rx="3" ry="3" style="stroke:#038048;stroke-width:1.0;"/><text fill="#000000" font-family="sans-serif" font-size="14" lengthAdjust="spacing" textLength="198" x="400.5" y="324.7451">remainingSupply() : uint256</text><ellipse cx="391.5" cy="337.6953" fill="#84BE84" rx="3" ry="3" style="stroke:#038048;stroke-width:1.0;"/><text fill="#000000" font-family="sans-serif" font-size="14" lengthAdjust="spacing" textLength="202" x="400.5" y="341.042">tokenDistributed() : uint256</text><ellipse cx="391.5" cy="353.9922" fill="#84BE84" rx="3" ry="3" style="stroke:#038048;stroke-width:1.0;"/><text fill="#000000" font-family="sans-serif" font-size="14" lengthAdjust="spacing" textLength="222" x="400.5" y="357.3389">contribution(address) : uint256</text><ellipse cx="391.5" cy="370.2891" fill="#84BE84" rx="3" ry="3" style="stroke:#038048;stroke-width:1.0;"/><text fill="#000000" font-family="sans-serif" font-size="14" lengthAdjust="spacing" textLength="79" x="400.5" y="373.6357">placeBids()</text><ellipse cx="391.5" cy="386.5859" fill="#84BE84" rx="3" ry="3" style="stroke:#038048;stroke-width:1.0;"/><text fill="#000000" font-family="sans-serif" font-size="14" lengthAdjust="spacing" textLength="62" x="400.5" y="389.9326">finalize()</text><ellipse cx="391.5" cy="402.8828" fill="#84BE84" rx="3" ry="3" style="stroke:#038048;stroke-width:1.0;"/><text fill="#000000" font-family="sans-serif" font-size="14" lengthAdjust="spacing" textLength="88" x="400.5" y="406.2295">burnToken()</text><ellipse cx="391.5" cy="419.1797" fill="#84BE84" rx="3" ry="3" style="stroke:#038048;stroke-width:1.0;"/><text fill="#000000" font-family="sans-serif" font-size="14" lengthAdjust="spacing" textLength="120" x="400.5" y="422.5264">withdrawToken()</text><ellipse cx="391.5" cy="435.4766" fill="#84BE84" rx="3" ry="3" style="stroke:#038048;stroke-width:1.0;"/><text fill="#000000" font-family="sans-serif" font-size="14" lengthAdjust="spacing" textLength="116" x="400.5" y="438.8232">withdrawFunds()</text><polygon fill="#FFFF44" points="391.5,446.7734,395.5,450.7734,391.5,454.7734,387.5,450.7734" style="stroke:#B38D22;stroke-width:1.0;"/><text fill="#000000" font-family="sans-serif" font-size="14" lengthAdjust="spacing" textLength="248" x="400.5" y="455.1201">_preValidateBids(address, uint256)</text><polygon fill="#FFFF44" points="391.5,463.0703,395.5,467.0703,391.5,471.0703,387.5,467.0703" style="stroke:#B38D22;stroke-width:1.0;"/><text fill="#000000" font-family="sans-serif" font-size="14" lengthAdjust="spacing" textLength="256" x="400.5" y="471.417">_postValidateBids(address, uint256)</text><polygon fill="#FFFF44" points="391.5,479.3672,395.5,483.3672,391.5,487.3672,387.5,483.3672" style="stroke:#B38D22;stroke-width:1.0;"/><text fill="#000000" font-family="sans-serif" font-size="14" lengthAdjust="spacing" textLength="254" x="400.5" y="487.7139">_processPurchase(address, uint256)</text><polygon fill="#FFFF44" points="391.5,495.6641,395.5,499.6641,391.5,503.6641,387.5,499.6641" style="stroke:#B38D22;stroke-width:1.0;"/><text fill="#000000" font-family="sans-serif" font-size="14" lengthAdjust="spacing" textLength="235" x="400.5" y="504.0107">_deliverTokens(address, uint256)</text><polygon fill="#FFFF44" points="391.5,511.9609,395.5,515.9609,391.5,519.9609,387.5,515.9609" style="stroke:#B38D22;stroke-width:1.0;"/><text fill="#000000" font-family="sans-serif" font-size="14" lengthAdjust="spacing" textLength="369" x="400.5" y="520.3076">_updatePurchasingState(address, uint256) : uint256</text><polygon fill="#FFFF44" points="391.5,528.2578,395.5,532.2578,391.5,536.2578,387.5,532.2578" style="stroke:#B38D22;stroke-width:1.0;"/><text fill="#000000" font-family="sans-serif" font-size="14" lengthAdjust="spacing" textLength="265" x="400.5" y="536.6045">_getTokenAmount(uint256) : uint256</text><polygon fill="#FFFF44" points="391.5,544.5547,395.5,548.5547,391.5,552.5547,387.5,548.5547" style="stroke:#B38D22;stroke-width:1.0;"/><text fill="#000000" font-family="sans-serif" font-size="14" lengthAdjust="spacing" textLength="113" x="400.5" y="552.9014">_forwardFunds()</text><polygon fill="#FFFF44" points="391.5,560.8516,395.5,564.8516,391.5,568.8516,387.5,564.8516" style="stroke:#B38D22;stroke-width:1.0;"/><text fill="#000000" font-family="sans-serif" font-size="14" lengthAdjust="spacing" textLength="183" x="400.5" y="569.1982">_preValidateFinalization()</text><polygon fill="#FFFF44" points="391.5,577.1484,395.5,581.1484,391.5,585.1484,387.5,581.1484" style="stroke:#B38D22;stroke-width:1.0;"/><text fill="#000000" font-family="sans-serif" font-size="14" lengthAdjust="spacing" textLength="97" x="400.5" y="585.4951">_finalization()</text><polygon fill="#FFFF44" points="391.5,593.4453,395.5,597.4453,391.5,601.4453,387.5,597.4453" style="stroke:#B38D22;stroke-width:1.0;"/><text fill="#000000" font-family="sans-serif" font-size="14" lengthAdjust="spacing" textLength="191" x="400.5" y="601.792">_postValidateFinalization()</text></g><!--class TimedAuction--><g id="elem_TimedAuction"><rect codeLine="38" fill="#F1F1F1" height="210.9688" id="TimedAuction" rx="2.5" ry="2.5" style="stroke:#181818;stroke-width:0.5;" width="274" x="648" y="686"/><ellipse cx="730.75" cy="702" fill="#ADD1B2" rx="11" ry="11" style="stroke:#181818;stroke-width:1.0;"/><path d="M733.0938,697.6719 C732.1563,697.2344 731.5625,697.0938 730.6875,697.0938 C728.0625,697.0938 726.0625,699.1719 726.0625,701.8906 L726.0625,703.0156 C726.0625,705.5938 728.1719,707.4844 731.0625,707.4844 C732.2813,707.4844 733.4375,707.1875 734.1875,706.6406 C734.7656,706.2344 735.0938,705.7813 735.0938,705.3906 C735.0938,704.9375 734.7031,704.5469 734.2344,704.5469 C734.0156,704.5469 733.8125,704.625 733.625,704.8125 C733.1719,705.2969 733.1719,705.2969 732.9844,705.3906 C732.5625,705.6563 731.875,705.7813 731.1094,705.7813 C729.0625,705.7813 727.7656,704.6875 727.7656,702.9844 L727.7656,701.8906 C727.7656,700.1094 729.0156,698.7969 730.75,698.7969 C731.3281,698.7969 731.9375,698.9531 732.4063,699.2031 C732.8906,699.4844 733.0625,699.7031 733.1563,700.1094 C733.2188,700.5156 733.25,700.6406 733.3906,700.7656 C733.5313,700.9063 733.7656,701.0156 733.9844,701.0156 C734.25,701.0156 734.5156,700.875 734.6875,700.6563 C734.7969,700.5 734.8281,700.3125 734.8281,699.8906 L734.8281,698.4688 C734.8281,698.0313 734.8125,697.9063 734.7188,697.75 C734.5625,697.4844 734.2813,697.3438 733.9844,697.3438 C733.6875,697.3438 733.4844,697.4375 733.2656,697.75 L733.0938,697.6719 Z " fill="#000000"/><text fill="#000000" font-family="sans-serif" font-size="14" lengthAdjust="spacing" textLength="100" x="751.25" y="706.8467">TimedAuction</text><line style="stroke:#181818;stroke-width:0.5;" x1="649" x2="921" y1="718" y2="718"/><rect fill="none" height="6" style="stroke:#C82930;stroke-width:1.0;" width="6" x="656" y="728.6484"/><text fill="#000000" font-family="sans-serif" font-size="14" lengthAdjust="spacing" textLength="160" x="668" y="734.9951">uint256 _openingTime</text><rect fill="none" height="6" style="stroke:#C82930;stroke-width:1.0;" width="6" x="656" y="744.9453"/><text fill="#000000" font-family="sans-serif" font-size="14" lengthAdjust="spacing" textLength="151" x="668" y="751.292">uint256 _closingTime</text><line style="stroke:#181818;stroke-width:0.5;" x1="649" x2="921" y1="758.5938" y2="758.5938"/><ellipse cx="659" cy="772.2422" fill="#84BE84" rx="3" ry="3" style="stroke:#038048;stroke-width:1.0;"/><text fill="#000000" font-family="sans-serif" font-size="14" lengthAdjust="spacing" textLength="210" x="668" y="775.5889">constructor(uint256, uint256)</text><ellipse cx="659" cy="788.5391" fill="#84BE84" rx="3" ry="3" style="stroke:#038048;stroke-width:1.0;"/><text fill="#000000" font-family="sans-serif" font-size="14" lengthAdjust="spacing" textLength="172" x="668" y="791.8857">openingTime() : uint256</text><ellipse cx="659" cy="804.8359" fill="#84BE84" rx="3" ry="3" style="stroke:#038048;stroke-width:1.0;"/><text fill="#000000" font-family="sans-serif" font-size="14" lengthAdjust="spacing" textLength="163" x="668" y="808.1826">closingTime() : uint256</text><ellipse cx="659" cy="821.1328" fill="#84BE84" rx="3" ry="3" style="stroke:#038048;stroke-width:1.0;"/><text fill="#000000" font-family="sans-serif" font-size="14" lengthAdjust="spacing" textLength="130" x="668" y="824.4795">afterOpen() : bool</text><ellipse cx="659" cy="837.4297" fill="#84BE84" rx="3" ry="3" style="stroke:#038048;stroke-width:1.0;"/><text fill="#000000" font-family="sans-serif" font-size="14" lengthAdjust="spacing" textLength="105" x="668" y="840.7764">isOpen() : bool</text><ellipse cx="659" cy="853.7266" fill="#84BE84" rx="3" ry="3" style="stroke:#038048;stroke-width:1.0;"/><text fill="#000000" font-family="sans-serif" font-size="14" lengthAdjust="spacing" textLength="127" x="668" y="857.0732">hasClosed() : bool</text><polygon fill="#FFFF44" points="659,865.0234,663,869.0234,659,873.0234,655,869.0234" style="stroke:#B38D22;stroke-width:1.0;"/><text fill="#000000" font-family="sans-serif" font-size="14" lengthAdjust="spacing" textLength="248" x="668" y="873.3701">_preValidateBids(address, uint256)</text><polygon fill="#FFFF44" points="659,881.3203,663,885.3203,659,889.3203,655,885.3203" style="stroke:#B38D22;stroke-width:1.0;"/><text fill="#000000" font-family="sans-serif" font-size="14" lengthAdjust="spacing" textLength="183" x="668" y="889.667">_preValidateFinalization()</text></g><!--class DecreasingPriceAuction--><g id="elem_DecreasingPriceAuction"><rect codeLine="51" fill="#F1F1F1" height="194.6719" id="DecreasingPriceAuction" rx="2.5" ry="2.5" style="stroke:#181818;stroke-width:0.5;" width="236" x="524" y="958"/><ellipse cx="553.85" cy="974" fill="#ADD1B2" rx="11" ry="11" style="stroke:#181818;stroke-width:1.0;"/><path d="M556.1938,969.6719 C555.2563,969.2344 554.6625,969.0938 553.7875,969.0938 C551.1625,969.0938 549.1625,971.1719 549.1625,973.8906 L549.1625,975.0156 C549.1625,977.5938 551.2719,979.4844 554.1625,979.4844 C555.3813,979.4844 556.5375,979.1875 557.2875,978.6406 C557.8656,978.2344 558.1938,977.7813 558.1938,977.3906 C558.1938,976.9375 557.8031,976.5469 557.3344,976.5469 C557.1156,976.5469 556.9125,976.625 556.725,976.8125 C556.2719,977.2969 556.2719,977.2969 556.0844,977.3906 C555.6625,977.6563 554.975,977.7813 554.2094,977.7813 C552.1625,977.7813 550.8656,976.6875 550.8656,974.9844 L550.8656,973.8906 C550.8656,972.1094 552.1156,970.7969 553.85,970.7969 C554.4281,970.7969 555.0375,970.9531 555.5063,971.2031 C555.9906,971.4844 556.1625,971.7031 556.2563,972.1094 C556.3188,972.5156 556.35,972.6406 556.4906,972.7656 C556.6313,972.9063 556.8656,973.0156 557.0844,973.0156 C557.35,973.0156 557.6156,972.875 557.7875,972.6563 C557.8969,972.5 557.9281,972.3125 557.9281,971.8906 L557.9281,970.4688 C557.9281,970.0313 557.9125,969.9063 557.8188,969.75 C557.6625,969.4844 557.3813,969.3438 557.0844,969.3438 C556.7875,969.3438 556.5844,969.4375 556.3656,969.75 L556.1938,969.6719 Z " fill="#000000"/><text fill="#000000" font-family="sans-serif" font-size="14" lengthAdjust="spacing" textLength="171" x="571.15" y="978.8467">DecreasingPriceAuction</text><line style="stroke:#181818;stroke-width:0.5;" x1="525" x2="759" y1="990" y2="990"/><rect fill="none" height="6" style="stroke:#C82930;stroke-width:1.0;" width="6" x="532" y="1000.6484"/><text fill="#000000" font-family="sans-serif" font-size="14" lengthAdjust="spacing" textLength="141" x="544" y="1006.9951">uint256 _initialPrice</text><rect fill="none" height="6" style="stroke:#C82930;stroke-width:1.0;" width="6" x="532" y="1016.9453"/><text fill="#000000" font-family="sans-serif" font-size="14" lengthAdjust="spacing" textLength="132" x="544" y="1023.292">uint256 _finalPrice</text><rect fill="none" height="6" style="stroke:#C82930;stroke-width:1.0;" width="6" x="532" y="1033.2422"/><text fill="#000000" font-family="sans-serif" font-size="14" lengthAdjust="spacing" textLength="160" x="544" y="1039.5889">uint256 _discountRate</text><line style="stroke:#181818;stroke-width:0.5;" x1="525" x2="759" y1="1046.8906" y2="1046.8906"/><ellipse cx="535" cy="1060.5391" fill="#84BE84" rx="3" ry="3" style="stroke:#038048;stroke-width:1.0;"/><text fill="#000000" font-family="sans-serif" font-size="14" lengthAdjust="spacing" textLength="210" x="544" y="1063.8857">constructor(uint256, uint256)</text><ellipse cx="535" cy="1076.8359" fill="#84BE84" rx="3" ry="3" style="stroke:#038048;stroke-width:1.0;"/><text fill="#000000" font-family="sans-serif" font-size="14" lengthAdjust="spacing" textLength="153" x="544" y="1080.1826">initialPrice() : uint256</text><ellipse cx="535" cy="1093.1328" fill="#84BE84" rx="3" ry="3" style="stroke:#038048;stroke-width:1.0;"/><text fill="#000000" font-family="sans-serif" font-size="14" lengthAdjust="spacing" textLength="144" x="544" y="1096.4795">finalPrice() : uint256</text><ellipse cx="535" cy="1109.4297" fill="#84BE84" rx="3" ry="3" style="stroke:#038048;stroke-width:1.0;"/><text fill="#000000" font-family="sans-serif" font-size="14" lengthAdjust="spacing" textLength="114" x="544" y="1112.7764">price() : uint256</text><polygon fill="#FFFF44" points="535,1120.7266,539,1124.7266,535,1128.7266,531,1124.7266" style="stroke:#B38D22;stroke-width:1.0;"/><text fill="#000000" font-family="sans-serif" font-size="14" lengthAdjust="spacing" textLength="190" x="544" y="1129.0732">_getTimedPrice() : uint256</text><polygon fill="#FFFF44" points="535,1137.0234,539,1141.0234,535,1145.0234,531,1141.0234" style="stroke:#B38D22;stroke-width:1.0;"/><text fill="#000000" font-family="sans-serif" font-size="14" lengthAdjust="spacing" textLength="205" x="544" y="1145.3701">_getDemandPrice() : uint256</text></g><!--class RefundableAuction--><g id="elem_RefundableAuction"><rect codeLine="63" fill="#F1F1F1" height="210.9688" id="RefundableAuction" rx="2.5" ry="2.5" style="stroke:#181818;stroke-width:0.5;" width="312" x="78" y="686"/><ellipse cx="161.25" cy="702" fill="#ADD1B2" rx="11" ry="11" style="stroke:#181818;stroke-width:1.0;"/><path d="M163.5938,697.6719 C162.6563,697.2344 162.0625,697.0938 161.1875,697.0938 C158.5625,697.0938 156.5625,699.1719 156.5625,701.8906 L156.5625,703.0156 C156.5625,705.5938 158.6719,707.4844 161.5625,707.4844 C162.7813,707.4844 163.9375,707.1875 164.6875,706.6406 C165.2656,706.2344 165.5938,705.7813 165.5938,705.3906 C165.5938,704.9375 165.2031,704.5469 164.7344,704.5469 C164.5156,704.5469 164.3125,704.625 164.125,704.8125 C163.6719,705.2969 163.6719,705.2969 163.4844,705.3906 C163.0625,705.6563 162.375,705.7813 161.6094,705.7813 C159.5625,705.7813 158.2656,704.6875 158.2656,702.9844 L158.2656,701.8906 C158.2656,700.1094 159.5156,698.7969 161.25,698.7969 C161.8281,698.7969 162.4375,698.9531 162.9063,699.2031 C163.3906,699.4844 163.5625,699.7031 163.6563,700.1094 C163.7188,700.5156 163.75,700.6406 163.8906,700.7656 C164.0313,700.9063 164.2656,701.0156 164.4844,701.0156 C164.75,701.0156 165.0156,700.875 165.1875,700.6563 C165.2969,700.5 165.3281,700.3125 165.3281,699.8906 L165.3281,698.4688 C165.3281,698.0313 165.3125,697.9063 165.2188,697.75 C165.0625,697.4844 164.7813,697.3438 164.4844,697.3438 C164.1875,697.3438 163.9844,697.4375 163.7656,697.75 L163.5938,697.6719 Z " fill="#000000"/><text fill="#000000" font-family="sans-serif" font-size="14" lengthAdjust="spacing" textLength="137" x="181.75" y="706.8467">RefundableAuction</text><line style="stroke:#181818;stroke-width:0.5;" x1="79" x2="389" y1="718" y2="718"/><rect fill="none" height="6" style="stroke:#C82930;stroke-width:1.0;" width="6" x="86" y="728.6484"/><text fill="#000000" font-family="sans-serif" font-size="14" lengthAdjust="spacing" textLength="286" x="98" y="734.9951">mapping{address =&gt; uint256} _refunds</text><rect fill="none" height="6" style="stroke:#C82930;stroke-width:1.0;" width="6" x="86" y="744.9453"/><text fill="#000000" font-family="sans-serif" font-size="14" lengthAdjust="spacing" textLength="130" x="98" y="751.292">bool _allowRefund</text><rect fill="none" height="6" style="stroke:#C82930;stroke-width:1.0;" width="6" x="86" y="761.2422"/><text fill="#000000" font-family="sans-serif" font-size="14" lengthAdjust="spacing" textLength="154" x="98" y="767.5889">uint256 _minimalGoal</text><line style="stroke:#181818;stroke-width:0.5;" x1="79" x2="389" y1="774.8906" y2="774.8906"/><ellipse cx="89" cy="788.5391" fill="#84BE84" rx="3" ry="3" style="stroke:#038048;stroke-width:1.0;"/><text fill="#000000" font-family="sans-serif" font-size="14" lengthAdjust="spacing" textLength="148" x="98" y="791.8857">constructor(uint256)</text><ellipse cx="89" cy="804.8359" fill="#84BE84" rx="3" ry="3" style="stroke:#038048;stroke-width:1.0;"/><text fill="#000000" font-family="sans-serif" font-size="14" lengthAdjust="spacing" textLength="166" x="98" y="808.1826">minimalGoal() : uint256</text><ellipse cx="89" cy="821.1328" fill="#84BE84" rx="3" ry="3" style="stroke:#038048;stroke-width:1.0;"/><text fill="#000000" font-family="sans-serif" font-size="14" lengthAdjust="spacing" textLength="172" x="98" y="824.4795">minimalGoalMet() : bool</text><ellipse cx="89" cy="837.4297" fill="#84BE84" rx="3" ry="3" style="stroke:#038048;stroke-width:1.0;"/><text fill="#000000" font-family="sans-serif" font-size="14" lengthAdjust="spacing" textLength="142" x="98" y="840.7764">allowRefund() : bool</text><ellipse cx="89" cy="853.7266" fill="#84BE84" rx="3" ry="3" style="stroke:#038048;stroke-width:1.0;"/><text fill="#000000" font-family="sans-serif" font-size="14" lengthAdjust="spacing" textLength="99" x="98" y="857.0732">claimRefund()</text><polygon fill="#FFFF44" points="89,865.0234,93,869.0234,89,873.0234,85,869.0234" style="stroke:#B38D22;stroke-width:1.0;"/><text fill="#000000" font-family="sans-serif" font-size="14" lengthAdjust="spacing" textLength="254" x="98" y="873.3701">_processPurchase(address, uint256)</text><polygon fill="#FFFF44" points="89,881.3203,93,885.3203,89,889.3203,85,885.3203" style="stroke:#B38D22;stroke-width:1.0;"/><text fill="#000000" font-family="sans-serif" font-size="14" lengthAdjust="spacing" textLength="191" x="98" y="889.667">_postValidateFinalization()</text></g><!--class AttackContract--><g id="elem_AttackContract"><rect codeLine="77" fill="#F1F1F1" height="129.4844" id="AttackContract" rx="2.5" ry="2.5" style="stroke:#181818;stroke-width:0.5;" width="338" x="7" y="243.5"/><ellipse cx="115.25" cy="259.5" fill="#ADD1B2" rx="11" ry="11" style="stroke:#181818;stroke-width:1.0;"/><path d="M117.5938,255.1719 C116.6563,254.7344 116.0625,254.5938 115.1875,254.5938 C112.5625,254.5938 110.5625,256.6719 110.5625,259.3906 L110.5625,260.5156 C110.5625,263.0938 112.6719,264.9844 115.5625,264.9844 C116.7813,264.9844 117.9375,264.6875 118.6875,264.1406 C119.2656,263.7344 119.5938,263.2813 119.5938,262.8906 C119.5938,262.4375 119.2031,262.0469 118.7344,262.0469 C118.5156,262.0469 118.3125,262.125 118.125,262.3125 C117.6719,262.7969 117.6719,262.7969 117.4844,262.8906 C117.0625,263.1563 116.375,263.2813 115.6094,263.2813 C113.5625,263.2813 112.2656,262.1875 112.2656,260.4844 L112.2656,259.3906 C112.2656,257.6094 113.5156,256.2969 115.25,256.2969 C115.8281,256.2969 116.4375,256.4531 116.9063,256.7031 C117.3906,256.9844 117.5625,257.2031 117.6563,257.6094 C117.7188,258.0156 117.75,258.1406 117.8906,258.2656 C118.0313,258.4063 118.2656,258.5156 118.4844,258.5156 C118.75,258.5156 119.0156,258.375 119.1875,258.1563 C119.2969,258 119.3281,257.8125 119.3281,257.3906 L119.3281,255.9688 C119.3281,255.5313 119.3125,255.4063 119.2188,255.25 C119.0625,254.9844 118.7813,254.8438 118.4844,254.8438 C118.1875,254.8438 117.9844,254.9375 117.7656,255.25 L117.5938,255.1719 Z " fill="#000000"/><text fill="#000000" font-family="sans-serif" font-size="14" lengthAdjust="spacing" textLength="113" x="135.75" y="264.3467">AttackContract</text><line style="stroke:#181818;stroke-width:0.5;" x1="8" x2="344" y1="275.5" y2="275.5"/><rect fill="none" height="6" style="stroke:#C82930;stroke-width:1.0;" width="6" x="15" y="286.1484"/><text fill="#000000" font-family="sans-serif" font-size="14" lengthAdjust="spacing" textLength="226" x="27" y="292.4951">RefundableAuctionImpl auction</text><rect fill="none" height="6" style="stroke:#C82930;stroke-width:1.0;" width="6" x="15" y="302.4453"/><text fill="#000000" font-family="sans-serif" font-size="14" lengthAdjust="spacing" textLength="166" x="27" y="308.792">uint256 targetFunction</text><rect fill="none" height="6" style="stroke:#C82930;stroke-width:1.0;" width="6" x="15" y="318.7422"/><text fill="#000000" font-family="sans-serif" font-size="14" lengthAdjust="spacing" textLength="164" x="27" y="325.0889">address payable owner</text><rect fill="none" height="6" style="stroke:#C82930;stroke-width:1.0;" width="6" x="15" y="335.0391"/><text fill="#000000" font-family="sans-serif" font-size="14" lengthAdjust="spacing" textLength="79" x="27" y="341.3857">bool isTest</text><line style="stroke:#181818;stroke-width:0.5;" x1="8" x2="344" y1="348.6875" y2="348.6875"/><ellipse cx="18" cy="362.3359" fill="#84BE84" rx="3" ry="3" style="stroke:#038048;stroke-width:1.0;"/><text fill="#000000" font-family="sans-serif" font-size="14" lengthAdjust="spacing" textLength="312" x="27" y="365.6826">constructor(address payable, bool, uint256)</text></g><!--class DutchAuction--><g id="elem_DutchAuction"><rect codeLine="85" fill="#F1F1F1" height="162.0781" id="DutchAuction" rx="2.5" ry="2.5" style="stroke:#181818;stroke-width:0.5;" width="280" x="348" y="1214"/><ellipse cx="434.75" cy="1230" fill="#ADD1B2" rx="11" ry="11" style="stroke:#181818;stroke-width:1.0;"/><path d="M437.0938,1225.6719 C436.1563,1225.2344 435.5625,1225.0938 434.6875,1225.0938 C432.0625,1225.0938 430.0625,1227.1719 430.0625,1229.8906 L430.0625,1231.0156 C430.0625,1233.5938 432.1719,1235.4844 435.0625,1235.4844 C436.2813,1235.4844 437.4375,1235.1875 438.1875,1234.6406 C438.7656,1234.2344 439.0938,1233.7813 439.0938,1233.3906 C439.0938,1232.9375 438.7031,1232.5469 438.2344,1232.5469 C438.0156,1232.5469 437.8125,1232.625 437.625,1232.8125 C437.1719,1233.2969 437.1719,1233.2969 436.9844,1233.3906 C436.5625,1233.6563 435.875,1233.7813 435.1094,1233.7813 C433.0625,1233.7813 431.7656,1232.6875 431.7656,1230.9844 L431.7656,1229.8906 C431.7656,1228.1094 433.0156,1226.7969 434.75,1226.7969 C435.3281,1226.7969 435.9375,1226.9531 436.4063,1227.2031 C436.8906,1227.4844 437.0625,1227.7031 437.1563,1228.1094 C437.2188,1228.5156 437.25,1228.6406 437.3906,1228.7656 C437.5313,1228.9063 437.7656,1229.0156 437.9844,1229.0156 C438.25,1229.0156 438.5156,1228.875 438.6875,1228.6563 C438.7969,1228.5 438.8281,1228.3125 438.8281,1227.8906 L438.8281,1226.4688 C438.8281,1226.0313 438.8125,1225.9063 438.7188,1225.75 C438.5625,1225.4844 438.2813,1225.3438 437.9844,1225.3438 C437.6875,1225.3438 437.4844,1225.4375 437.2656,1225.75 L437.0938,1225.6719 Z " fill="#000000"/><text fill="#000000" font-family="sans-serif" font-size="14" lengthAdjust="spacing" textLength="98" x="455.25" y="1234.8467">DutchAuction</text><line style="stroke:#181818;stroke-width:0.5;" x1="349" x2="627" y1="1246" y2="1246"/><line style="stroke:#181818;stroke-width:0.5;" x1="349" x2="627" y1="1254" y2="1254"/><ellipse cx="359" cy="1267.6484" fill="#84BE84" rx="3" ry="3" style="stroke:#038048;stroke-width:1.0;"/><text fill="#000000" font-family="sans-serif" font-size="14" lengthAdjust="spacing" textLength="210" x="368" y="1270.9951">constructor(uint256, uint256)</text><ellipse cx="359" cy="1283.9453" fill="#84BE84" rx="3" ry="3" style="stroke:#038048;stroke-width:1.0;"/><text fill="#000000" font-family="sans-serif" font-size="14" lengthAdjust="spacing" textLength="193" x="368" y="1287.292">getCurrentTime() : uint256</text><ellipse cx="359" cy="1300.2422" fill="#84BE84" rx="3" ry="3" style="stroke:#038048;stroke-width:1.0;"/><text fill="#000000" font-family="sans-serif" font-size="14" lengthAdjust="spacing" textLength="114" x="368" y="1303.5889">price() : uint256</text><polygon fill="#FFFF44" points="359,1311.5391,363,1315.5391,359,1319.5391,355,1315.5391" style="stroke:#B38D22;stroke-width:1.0;"/><text fill="#000000" font-family="sans-serif" font-size="14" lengthAdjust="spacing" textLength="248" x="368" y="1319.8857">_preValidateBids(address, uint256)</text><polygon fill="#FFFF44" points="359,1327.8359,363,1331.8359,359,1335.8359,355,1331.8359" style="stroke:#B38D22;stroke-width:1.0;"/><text fill="#000000" font-family="sans-serif" font-size="14" lengthAdjust="spacing" textLength="183" x="368" y="1336.1826">_preValidateFinalization()</text><polygon fill="#FFFF44" points="359,1344.1328,363,1348.1328,359,1352.1328,355,1348.1328" style="stroke:#B38D22;stroke-width:1.0;"/><text fill="#000000" font-family="sans-serif" font-size="14" lengthAdjust="spacing" textLength="254" x="368" y="1352.4795">_processPurchase(address, uint256)</text><polygon fill="#FFFF44" points="359,1360.4297,363,1364.4297,359,1368.4297,355,1364.4297" style="stroke:#B38D22;stroke-width:1.0;"/><text fill="#000000" font-family="sans-serif" font-size="14" lengthAdjust="spacing" textLength="191" x="368" y="1368.7764">_postValidateFinalization()</text></g><!--class Token--><g id="elem_Token"><rect codeLine="95" fill="#F1F1F1" height="96.8906" id="Token" rx="2.5" ry="2.5" style="stroke:#181818;stroke-width:0.5;" width="187" x="425.5" y="743"/><ellipse cx="492.25" cy="759" fill="#ADD1B2" rx="11" ry="11" style="stroke:#181818;stroke-width:1.0;"/><path d="M494.5938,754.6719 C493.6563,754.2344 493.0625,754.0938 492.1875,754.0938 C489.5625,754.0938 487.5625,756.1719 487.5625,758.8906 L487.5625,760.0156 C487.5625,762.5938 489.6719,764.4844 492.5625,764.4844 C493.7813,764.4844 494.9375,764.1875 495.6875,763.6406 C496.2656,763.2344 496.5938,762.7813 496.5938,762.3906 C496.5938,761.9375 496.2031,761.5469 495.7344,761.5469 C495.5156,761.5469 495.3125,761.625 495.125,761.8125 C494.6719,762.2969 494.6719,762.2969 494.4844,762.3906 C494.0625,762.6563 493.375,762.7813 492.6094,762.7813 C490.5625,762.7813 489.2656,761.6875 489.2656,759.9844 L489.2656,758.8906 C489.2656,757.1094 490.5156,755.7969 492.25,755.7969 C492.8281,755.7969 493.4375,755.9531 493.9063,756.2031 C494.3906,756.4844 494.5625,756.7031 494.6563,757.1094 C494.7188,757.5156 494.75,757.6406 494.8906,757.7656 C495.0313,757.9063 495.2656,758.0156 495.4844,758.0156 C495.75,758.0156 496.0156,757.875 496.1875,757.6563 C496.2969,757.5 496.3281,757.3125 496.3281,756.8906 L496.3281,755.4688 C496.3281,755.0313 496.3125,754.9063 496.2188,754.75 C496.0625,754.4844 495.7813,754.3438 495.4844,754.3438 C495.1875,754.3438 494.9844,754.4375 494.7656,754.75 L494.5938,754.6719 Z " fill="#000000"/><text fill="#000000" font-family="sans-serif" font-size="14" lengthAdjust="spacing" textLength="45" x="512.75" y="763.8467">Token</text><line style="stroke:#181818;stroke-width:0.5;" x1="426.5" x2="611.5" y1="775" y2="775"/><rect fill="none" height="6" style="stroke:#C82930;stroke-width:1.0;" width="6" x="433.5" y="785.6484"/><text fill="#000000" font-family="sans-serif" font-size="14" lengthAdjust="spacing" textLength="147" x="445.5" y="791.9951">uint256 initialSupply</text><line style="stroke:#181818;stroke-width:0.5;" x1="426.5" x2="611.5" y1="799.2969" y2="799.2969"/><ellipse cx="436.5" cy="812.9453" fill="#84BE84" rx="3" ry="3" style="stroke:#038048;stroke-width:1.0;"/><text fill="#000000" font-family="sans-serif" font-size="14" lengthAdjust="spacing" textLength="122" x="445.5" y="816.292">constructor(uint)</text><ellipse cx="436.5" cy="829.2422" fill="#84BE84" rx="3" ry="3" style="stroke:#038048;stroke-width:1.0;"/><text fill="#000000" font-family="sans-serif" font-size="14" lengthAdjust="spacing" textLength="161" x="445.5" y="832.5889">mint(address, uint256)</text></g><!--reverse link Auction to TimedAuction--><g id="link_Auction_TimedAuction"><path codeLine="101" d="M714.1463,625.6885 C725.7863,652.7635 729.857,662.233 739.938,685.681 " fill="none" id="Auction-backto-TimedAuction" style="stroke:#181818;stroke-width:1.0;"/><polygon fill="none" points="707.037,609.152,708.6342,628.0583,719.6585,623.3188,707.037,609.152" style="stroke:#181818;stroke-width:1.0;"/></g><!--reverse link Auction to RefundableAuction--><g id="link_Auction_RefundableAuction"><path codeLine="102" d="M369.9223,600.2482 C344.5413,635.7742 330.386,655.587 308.806,685.794 " fill="none" id="Auction-backto-RefundableAuction" style="stroke:#181818;stroke-width:1.0;"/><polygon fill="none" points="380.386,585.602,365.0402,596.7603,374.8043,603.7361,380.386,585.602" style="stroke:#181818;stroke-width:1.0;"/></g><!--reverse link TimedAuction to DecreasingPriceAuction--><g id="link_TimedAuction_DecreasingPriceAuction"><path codeLine="103" d="M719.2427,912.979 C708.3517,932.934 705.62,937.938 694.869,957.636 " fill="none" id="TimedAuction-backto-DecreasingPriceAuction" style="stroke:#181818;stroke-width:1.0;"/><polygon fill="none" points="727.866,897.179,713.9761,910.1045,724.5094,915.8534,727.866,897.179" style="stroke:#181818;stroke-width:1.0;"/></g><!--reverse link RefundableAuction to DutchAuction--><g id="link_RefundableAuction_DutchAuction"><path codeLine="104" d="M295.0708,913.0779 C342.8308,1007.3779 403.94,1128.032 447.438,1213.914 " fill="none" id="RefundableAuction-backto-DutchAuction" style="stroke:#181818;stroke-width:1.0;"/><polygon fill="none" points="286.938,897.02,289.7182,915.7889,300.4235,910.367,286.938,897.02" style="stroke:#181818;stroke-width:1.0;"/></g><!--reverse link DecreasingPriceAuction to DutchAuction--><g id="link_DecreasingPriceAuction_DutchAuction"><path codeLine="105" d="M569.569,1168.2029 C556.495,1188.3659 552.642,1194.309 540.003,1213.8 " fill="none" id="DecreasingPriceAuction-backto-DutchAuction" style="stroke:#181818;stroke-width:1.0;"/><polygon fill="none" points="579.362,1153.1,564.5347,1164.9386,574.6033,1171.4672,579.362,1153.1" style="stroke:#181818;stroke-width:1.0;"/></g><!--link Auction to Token--><g id="link_Auction_Token"><path codeLine="106" d="M541.221,609.152 C534.843,661.205 529.6788,703.3515 525.5658,736.9165 " fill="none" id="Auction-to-Token" style="stroke:#181818;stroke-width:1.0;stroke-dasharray:7.0,7.0;"/><polygon fill="#181818" points="524.836,742.872,529.901,734.4253,525.4441,737.9091,521.9604,733.4523,524.836,742.872" style="stroke:#181818;stroke-width:1.0;"/><text fill="#000000" font-family="sans-serif" font-size="13" lengthAdjust="spacing" textLength="30" x="538" y="652.0669">uses</text></g><!--link AttackContract to RefundableAuction--><g id="link_AttackContract_RefundableAuction"><path codeLine="107" d="M183.702,372.94 C193.316,452.754 209.1735,584.3941 220.6545,679.7121 " fill="none" id="AttackContract-to-RefundableAuction" style="stroke:#181818;stroke-width:1.0;stroke-dasharray:7.0,7.0;"/><polygon fill="#181818" points="221.372,685.669,224.267,676.2552,220.7741,680.7049,216.3244,677.2119,221.372,685.669" style="stroke:#181818;stroke-width:1.0;"/><text fill="#000000" font-family="sans-serif" font-size="13" lengthAdjust="spacing" textLength="40" x="218" y="652.0669">attack</text></g><!--SRC=[hLPDJnin4BtlhrYfbw0cg49g3rMB14cfE22Y5BM7geeSxuHOUEsjFvfIod_7zdetZjUEG89JcFTcF7xpuSKKILcUQQm8P-L3KPg_INdvPJ4zUNUk1KCh2kLIyJjW7aDL9S3uDEY-1VcMWV2W9aoTlFzGBXj1C7XZZPg6iDk7plFpQSTxB9UOCoN8IjlpvVuHFt-LozyQDCJ1jq0MY4YeFB3Yd9RBDM68ad-H5L7AjzSsnHz4RIg1jZGEvsvtXVwUrLmpbKHdHBPP-kXlIvEtCHdTk1XvxhXBVEm577THZhoJYpKwAZzwWZSx1PtP1_1s9wAp-pZUtjy_WVKgECngu041DIBCrE6RRXfwdt2DRvgWXDKQ-MI7h8OY3EUaagEZAAlUi3AzTTEgqLtAboTjlT2i3_V6jXTyDm4hfDfpUk7t1BT4BjKpcO9Z0yorm1ia8K-iW98_85oU1-BfnfxfmrdPbVbtI8_4Cuwte5pijXr7UUAQYoqILLwQYrPrvAhL4zP9QoXKvFTO5DYjYHjIGnNlYdvGU0EslImfXZ3bCeGounDDIn0mrOgxc0aKhHM8wyPFMp06HAQifaHJ4o-UcXTrMbRtNhyPO06k6UPsihDAcZ5L1D5vi4Dxp5KlYLH4Ojin2vF12rGE3yljanoONb2-Xsspp0yGPcOXiGIZbsi1QzFQzf69bJhueWZd9eUlG1ilbgqs0jI8VkM8vbNhn0h82Ja2z0fKt6D13Z5axalg3dhnGZemkZinpvH2-6vgzpV2gbToeF5btT0IjRyZgHGIfcnctOHW_3aGVWquxOcy0QaIqaQUOqSFRhSR6wtmPhy5djVQ9jkf5WAOoco9RF- -mjI_OXLt2zY-2uDzuIUuVTSpyWGDh18vc1CwWJ_zdqpsDlq-CcYOOkzLS9pqdYk6yzooW_8McHKv97R8yV6fbyKKKO8ieaQt-F1WywNbQ4y0]--></g></svg>